<svg width="300" height="300" viewBox="0 0 300 400" fill="none" xmlns="http://www.w3.org/2000/svg">
<path d="M259.5 153.5C262.833 152.333 265 149.333 265 146C265 139.5 259.5 136.5 257 136" stroke="#4A4A4A" stroke-opacity="0.5" stroke-width="2" stroke-linecap="round"/>
<path d="M260 164C262.333 165.667 265.5 167.5 267 168.5C269.5 170 270 167 269 164.5" stroke="#4A4A4A" stroke-opacity="0.5" stroke-width="2" stroke-linecap="round"/>
<path d="M250.5 174C252.833 172.333 255.5 170.5 257 169.5C259.5 168 260 171 259 173.5" stroke="#4A4A4A" stroke-opacity="0.5" stroke-width="2" stroke-linecap="round"/>
<path d="M241.5 153.5C238.167 152.333 236 149.333 236 146C236 139.5 241.5 136.5 244 136" stroke="#4A4A4A" stroke-opacity="0.5" stroke-width="2" stroke-linecap="round"/>
<path d="M241 164C238.667 165.667 235.5 167.5 234 168.5C231.5 170 231 167 232 164.5" stroke="#4A4A4A" stroke-opacity="0.5" stroke-width="2" stroke-linecap="round"/>
<path d="M250.5 174C248.167 172.333 245.5 170.5 244 169.5C241.5 168 241 171 242 173.5" stroke="#4A4A4A" stroke-opacity="0.5" stroke-width="2" stroke-linecap="round"/>
<path d="M192.361 278.293C192.012 278.134 191.634 278.024 191.229 277.979C190.824 277.933 190.413 277.952 190.03 278.035C188.948 278.269 187.97 278.942 187.422 279.911C186.874 280.88 186.822 282.029 187.288 283.033C187.754 284.037 188.679 284.783 189.789 285.065C190.9 285.346 192.073 285.133 192.985 284.475" stroke="#4A4A4A" stroke-opacity="0.5" stroke-width="2" stroke-linecap="round" stroke-linejoin="round"/>
<path d="M200.003 303.22C199.645 303.048 199.255 302.946 198.851 302.924C198.447 302.902 198.042 302.96 197.668 303.093C196.556 303.491 195.665 304.28 195.215 305.302C194.765 306.324 194.811 307.485 195.342 308.483C195.873 309.481 196.83 310.203 197.935 310.428C199.04 310.654 200.187 310.36 201.071 309.624" stroke="#4A4A4A" stroke-opacity="0.5" stroke-width="2" stroke-linecap="round" stroke-linejoin="round"/>
<path d="M188.544 261.218C188.134 261.036 187.697 260.942 187.258 260.946C186.819 260.951 186.39 261.054 186.007 261.247C184.908 261.815 184.093 262.77 183.791 263.903C183.489 265.036 183.728 266.237 184.448 267.169C185.168 268.101 186.29 268.677 187.48 268.742C188.67 268.807 189.814 268.351 190.627 267.513" stroke="#4A4A4A" stroke-opacity="0.5" stroke-width="2" stroke-linecap="round" stroke-linejoin="round"/>
<path d="M183.5 243.5V245" stroke="#4A4A4A" stroke-opacity="0.5" stroke-width="2" stroke-linecap="round" stroke-linejoin="round"/>
<path d="M187.5 243.5V245" stroke="#4A4A4A" stroke-opacity="0.5" stroke-width="2" stroke-linecap="round" stroke-linejoin="round"/>
<path d="M185.5 241.5V240" stroke="#4A4A4A" stroke-opacity="0.5" stroke-width="2" stroke-linecap="round" stroke-linejoin="round"/>
<path d="M185.5 249.5V248" stroke="#4A4A4A" stroke-opacity="0.5" stroke-width="2" stroke-linecap="round" stroke-linejoin="round"/>
<path d="M181.5 247.5L180 248.5" stroke="#4A4A4A" stroke-opacity="0.5" stroke-width="2" stroke-linecap="round" stroke-linejoin="round"/>
<path d="M189.5 239.5L191 238.5" stroke="#4A4A4A" stroke-opacity="0.5" stroke-width="2" stroke-linecap="round" stroke-linejoin="round"/>
<path d="M181.5 241.5L180 240.5" stroke="#4A4A4A" stroke-opacity="0.5" stroke-width="2" stroke-linecap="round" stroke-linejoin="round"/>
<path d="M189.5 249.5L191 250.5" stroke="#4A4A4A" stroke-opacity="0.5" stroke-width="2" stroke-linecap="round" stroke-linejoin="round"/>
</svg>
